<?xml version="1.0" encoding="UTF-8" standalone="no"?><!DOCTYPE svg PUBLIC "-//W3C//DTD SVG 1.1//EN" "http://www.w3.org/Graphics/SVG/1.1/DTD/svg11.dtd"><svg width="100%" height="100%" viewBox="0 0 2563 3017" version="1.1" xmlns="http://www.w3.org/2000/svg" xmlns:xlink="http://www.w3.org/1999/xlink" xml:space="preserve" xmlns:serif="http://www.serif.com/" style="fill-rule:evenodd;clip-rule:evenodd;stroke-linejoin:round;stroke-miterlimit:2;"><g><path d="M2562.39,189.229l-0,2638.31c-0,102.456 -83.181,185.637 -185.637,185.637l-2187.73,0c-102.456,0 -185.638,-83.181 -185.638,-185.637l0,-2638.31c0,-102.456 83.182,-185.637 185.638,-185.637l2187.73,-0c102.456,-0 185.637,83.181 185.637,185.637Z" style="fill:#03161e;"/><g id="White-Elements" serif:id="White Elements"><path d="M1275.57,2091.16c-0,-0 31.971,60.245 53.804,66.371c-20.792,3.643 -53.804,66.371 -53.804,66.371c-0,0 -28.424,-61.291 -53.804,-66.371c24.186,-10.484 53.804,-66.371 53.804,-66.371Z" style="fill:#fff;"/><path d="M1727.16,1985.65l40.052,59.813l-40.052,59.812l-40.052,-59.812l40.052,-59.813Z" style="fill:#fff;"/><path d="M862.005,2076.5l40.757,52.858l-40.757,52.857l-40.758,-52.857l40.758,-52.858Z" style="fill:#fff;"/><path d="M417.118,797.489l40.758,52.858l-40.758,52.858l-40.757,-52.858l40.757,-52.858Z" style="fill:#fff;"/><path d="M2284.22,879.708l31.761,44.481l-31.761,44.481l-31.761,-44.481l31.761,-44.481Z" style="fill:#fff;"/><path d="M370.722,1708.8c0,-0 47.831,-22.581 62.746,-53.805c8.533,31.597 79.412,53.805 79.412,53.805c-0,-0 -70.306,18.144 -79.412,53.804c-11.228,-30.638 -62.746,-53.804 -62.746,-53.804Z" style="fill:#fff;"/><path d="M2171.35,877.113l0,36.477l-317.887,0l-0,-44.81l317.887,8.333Z" style="fill:#fff;"/><rect x="193.316" y="2041.83" width="431.972" height="45.148" style="fill:#fff;"/><rect x="193.316" y="2142.94" width="204.117" height="45.148" style="fill:#fff;"/><rect x="1839.54" y="2173.74" width="168.648" height="45.148" style="fill:#fff;"/></g><path id="Sprocket" d="M745.108,1548.92l-56.053,0l-14.079,-64.133l-292.122,-0c-14.055,36.892 -49.776,63.131 -91.578,63.131c-54.066,0 -97.96,-43.894 -97.96,-97.96c-0,-54.065 43.894,-97.96 97.96,-97.96c44.766,0 82.559,30.093 94.236,71.137l355.33,-0c3.198,-37.392 10.333,-73.678 20.993,-108.448l-202.277,-142.765c-14.467,10.013 -32.017,15.881 -50.926,15.881c-49.47,0 -89.633,-40.163 -89.633,-89.633c-0,-49.47 40.163,-89.633 89.633,-89.633c49.47,0 89.633,40.163 89.633,89.633c-0,2.558 -0.107,5.09 -0.318,7.593l193.459,133.805c46.263,-95.195 120.492,-174.553 212.089,-227.566l-6.83,-99.492l-106.114,-0c-11.55,37.771 -46.709,65.274 -88.241,65.274c-50.917,0 -92.256,-41.338 -92.256,-92.256c0,-50.917 41.339,-92.256 92.256,-92.256c43.228,0 79.551,29.795 89.537,69.951l113.745,-0.292l56.994,0.292l20.685,111.055c44.675,-16.746 104.708,-27.701 154.167,-31.937l1.755,-164.261l77.593,0l-0,164.193c47.348,3.984 92.939,14.125 135.953,29.611l21.057,-120.536l214.248,9.873c11.515,-35.313 44.73,-60.859 83.865,-60.859c48.673,-0 88.189,39.516 88.189,88.188c-0,48.673 -39.516,88.189 -88.189,88.189c-39.83,-0 -73.528,-26.462 -84.458,-62.749l-142.983,-0l-7.657,96.734c89.776,51.385 163.051,128.005 209.937,220.056l124.889,-76.01l200.97,-0c7.353,-41.485 43.624,-73.032 87.206,-73.032c48.881,0 88.566,39.685 88.566,88.566c-0,48.881 -39.685,88.566 -88.566,88.566c-32.771,0 -61.409,-17.837 -76.726,-44.325l-165.915,0l-139.719,89.955c12.866,39.084 21.254,80.167 24.56,122.654l228.375,-0c10.11,-39.24 45.86,-68.275 88.359,-68.275c50.344,0 91.218,40.744 91.218,90.928c-0,50.185 -40.874,90.928 -91.218,90.928c-37.334,0 -69.459,-22.406 -83.57,-54.452l-131.413,-0l-5.301,56.951l-100.195,-0c-7.211,50.201 -21.556,98.137 -41.982,142.764l278.066,214.708c12.656,-6.451 26.981,-10.089 42.149,-10.089c51.336,-0 93.015,41.678 93.015,93.014c-0,51.336 -41.679,93.015 -93.015,93.015c-51.336,-0 -93.014,-41.679 -93.014,-93.015c-0,-9.649 1.472,-18.958 4.205,-27.712l-272.018,-197.102c-46.703,70.062 -109.797,132.623 -183.846,173.957l0,126.901c20.875,13.089 34.767,36.306 34.767,62.741c-0,40.842 -33.159,74.001 -74.002,74.001c-40.842,0 -74.001,-33.159 -74.001,-74.001c0,-25.816 13.249,-48.563 33.312,-61.805l0,-95.68c-56.412,20.203 -117.239,31.218 -180.641,31.218c-64.592,-0 -126.512,-11.433 -183.814,-32.366l0,96.828c20.064,13.242 33.312,35.989 33.312,61.805c0,40.842 -33.159,74.001 -74.001,74.001c-40.842,0 -74.001,-33.159 -74.001,-74.001c-0,-26.435 13.891,-49.652 34.766,-62.741l0,-128.686c-73.592,-41.742 -136.195,-104.567 -182.402,-174.783l-113.047,81.842c0.883,5.051 1.343,10.247 1.343,15.55c-0,49.63 -40.294,89.924 -89.925,89.924c-49.63,-0 -89.924,-40.294 -89.924,-89.924c0,-49.631 40.294,-89.925 89.924,-89.925c16.545,0 32.053,4.478 45.376,12.287l118.736,-87.003c-20.37,-43.782 -34.871,-90.793 -42.498,-140.037Zm706.036,-444.606c-54.29,-26.46 -115.349,-41.324 -179.881,-41.324c-82.751,-0 -159.791,24.442 -224.173,66.436l0.032,-0.012l147.561,183.495c27.667,-16.068 59.806,-25.271 94.078,-25.271c16.072,0 31.676,2.024 46.57,5.832l115.813,-189.156Zm-162.383,285.82c-47.044,0 -85.238,38.194 -85.238,85.238c-0,47.044 38.194,85.238 85.238,85.238c47.044,-0 85.237,-38.194 85.237,-85.238c0,-47.044 -38.193,-85.238 -85.237,-85.238Zm343.175,-112.511c-26.829,-49.77 -63.829,-93.352 -108.239,-128.008l-113.324,182.78c16.96,14.443 31.321,31.847 42.282,51.409l179.281,-106.181Zm-51.282,455.315c61.862,-71.03 99.294,-163.555 99.294,-264.681c0,-40.179 -5.909,-79 -16.912,-115.655l-187.817,100.79c0.842,7.21 1.276,14.545 1.276,21.98c-0,40.039 -12.562,77.167 -33.955,107.656l138.114,149.91Zm-453.251,-161.61c-16.75,-28.087 -26.376,-60.906 -26.376,-95.956c-0,-33.295 8.686,-64.577 23.914,-91.702l-157.577,-185.698c-0.044,-0.144 -0.087,-0.288 -0.127,-0.433c-65.056,71.786 -104.659,166.702 -104.659,270.718c0,101.729 37.88,194.754 100.404,265.949l164.421,-162.878Zm-86.865,231.397c65.678,44.66 145.148,70.8 230.725,70.8c86.193,-0 166.19,-26.517 232.14,-71.766l-134.855,-156.428c-24.22,11.401 -51.265,17.775 -79.787,17.775c-34.35,0 -66.557,-9.245 -94.267,-25.38l-153.956,164.999Zm-531.906,-743.459c-21.472,-0 -38.904,17.432 -38.904,38.904c-0,21.472 17.432,38.904 38.904,38.904c21.472,0 38.904,-17.432 38.904,-38.904c-0,-21.472 -17.432,-38.904 -38.904,-38.904Zm293.678,-213.781c-22.1,0 -40.042,17.943 -40.042,40.043c-0,22.1 17.942,40.043 40.042,40.043c22.1,-0 40.043,-17.943 40.043,-40.043c-0,-22.1 -17.943,-40.043 -40.043,-40.043Zm969.599,3.05c-22.085,-0 -40.015,17.93 -40.015,40.015c-0,22.085 17.93,40.015 40.015,40.015c22.085,0 40.015,-17.93 40.015,-40.015c0,-22.085 -17.93,-40.015 -40.015,-40.015Zm387.904,281.678c-22.127,-0 -40.092,17.964 -40.092,40.091c0,22.127 17.965,40.092 40.092,40.092c22.127,-0 40.091,-17.965 40.091,-40.092c0,-22.127 -17.964,-40.091 -40.091,-40.091Zm-41.066,278.977c-22.488,-0 -40.746,18.2 -40.746,40.617c-0,22.418 18.258,40.618 40.746,40.618c22.489,-0 40.747,-18.2 40.747,-40.618c-0,-22.417 -18.258,-40.617 -40.747,-40.617Zm-1495.25,405.084c-21.703,-0 -39.324,17.62 -39.324,39.324c0,21.703 17.621,39.324 39.324,39.324c21.704,-0 39.324,-17.621 39.324,-39.324c0,-21.704 -17.62,-39.324 -39.324,-39.324Zm1632.77,-161.618c17.534,-30.916 51.309,-51.868 90.06,-51.868c56.766,-0 102.853,49.127 102.853,104.505c-0,55.379 -46.087,100.339 -102.853,100.339c-54.738,0 -99.547,-41.806 -102.677,-94.447l-344.32,0l0,-58.529l356.937,-0Z" style="fill:#ffb500;"/><path d="M721.553,620.259l-17.987,16.642c-62.01,57.374 -134.477,85.999 -217.351,85.999c-88.12,0 -163.495,-31.425 -226.106,-94.325c-62.58,-62.87 -93.844,-138.352 -93.844,-226.428c-0,-88.104 31.283,-163.464 93.884,-226.065c62.601,-62.601 137.961,-93.884 226.066,-93.884c84.044,-0 156.478,28.158 217.338,84.38l18.02,16.648l-123.211,126.022l-15.654,-14.521c-28.048,-26.015 -60.961,-39.057 -98.765,-39.057c-40.237,0 -74.577,14.338 -103.028,42.993c-28.492,28.696 -42.75,63.188 -42.75,103.484c0,40.297 14.258,74.789 42.75,103.485c28.451,28.655 62.791,42.993 103.028,42.993c38.24,-0 71.394,-13.022 99.464,-39.057l15.661,-14.527l122.485,125.218Zm639.801,87.387l-190.431,-0c-0,-0 -50.58,-126.048 -50.58,-126.048l-173.97,0l-50.58,126.048l-191.281,-0l244.427,-610.194l168.861,-0l243.554,610.194Zm-378.526,-268.982l100.951,0l-50.73,-157.566l-50.221,157.566Zm787.552,59.527l138.245,209.455l-183.33,-0l-110.413,-173.416c0,-0 -68.336,-0 -68.336,-0l0,173.416l-156.735,-0l0,-610.194l259.044,-0c60.753,-0 112.786,21.35 156.096,64.058c43.429,42.825 65.103,94.414 65.103,154.732c-0,42.934 -11.537,81.923 -34.515,116.995c-17.374,26.518 -39.092,48.172 -65.159,64.954Zm-124.736,-112.515c20.053,-0 37.133,-6.734 51.17,-20.37c13.792,-13.397 20.671,-29.756 20.671,-49.064c0,-19.402 -6.94,-35.929 -20.798,-49.589c-14.005,-13.805 -31.036,-20.647 -51.044,-20.647l-99.097,0l0,139.67l99.098,-0Zm455.341,-288.224c83.37,-0 158.521,29.729 217.113,89.196c58.46,59.332 87.735,131.154 87.735,215.499c-0,84.33 -29.397,156.29 -88.137,215.902c-58.889,59.764 -133.917,89.597 -216.711,89.597l-153.081,-0l0,-610.194l153.081,-0Zm-3.212,460.837c41.879,0 77.638,-15.238 107.322,-45.612c29.888,-30.584 44.806,-67.434 44.806,-110.53c-0,-43.095 -14.918,-79.945 -44.806,-110.529c-29.684,-30.374 -65.443,-45.612 -107.322,-45.612l2.699,-0l0,312.283l-2.699,0Z" style="fill:#fff;"/><path d="M1725.63,2698.02l138.244,209.455l-183.329,-0l-110.413,-173.416c-0,-0 -68.336,-0 -68.336,-0l-0,173.416l-156.735,-0l-0,-610.194l259.043,-0c60.754,-0 112.787,21.35 156.096,64.057c43.429,42.826 65.103,94.415 65.103,154.733c0,42.934 -11.536,81.922 -34.515,116.995c-17.374,26.518 -39.091,48.172 -65.158,64.954Zm-124.737,-112.515c20.054,-0 37.133,-6.734 51.171,-20.371c13.791,-13.397 20.671,-29.755 20.671,-49.063c-0,-19.402 -6.94,-35.929 -20.799,-49.59c-14.005,-13.805 -31.036,-20.646 -51.043,-20.646l-99.097,-0l-0,139.67l99.097,-0Zm-1241.23,-104.907l-0,67.492l244.884,0l0,161.798l-244.884,-0l-0,199.97l-167.812,-0l0,-596.319l469.079,-0l-0,167.059l-301.267,0Zm409.522,-89.779c61.06,-61.059 134.568,-91.564 220.503,-91.564c85.893,0 159.51,30.478 220.821,91.507c61.357,61.074 91.998,134.604 91.998,220.56c0,85.913 -30.614,159.553 -91.94,220.879c-61.326,61.326 -134.966,91.94 -220.879,91.94c-85.956,0 -159.487,-30.641 -220.561,-91.998c-61.028,-61.311 -91.506,-134.928 -91.506,-220.821c-0,-85.935 30.505,-159.443 91.564,-220.503Zm118.586,323.349l0.053,0.053c28.14,28.073 62.095,42.109 101.864,42.109c39.871,-0 73.988,-14.233 102.381,-42.626c28.394,-28.393 42.627,-62.51 42.627,-102.382c-0,-39.871 -14.233,-73.988 -42.627,-102.381c-28.393,-28.393 -62.51,-42.626 -102.381,-42.626c-39.805,-0 -73.772,14.191 -101.916,42.537c-28.214,28.416 -42.34,62.567 -42.34,102.47c0,39.928 14.137,74.2 42.339,102.846Zm1539.08,-400.629l-208.924,272.603l217.065,323.716l-216.092,-0c0,-0 -121.18,-201.693 -121.18,-201.693l-33.049,35.204l-0,166.489l-167.812,-0l0,-596.319l167.812,-0l-0,199.065l146.734,-199.065l215.446,-0Z" style="fill:#fff;"/></g></svg>